<svg width="1440" height="145" viewBox="0 0 1440 145" fill="none" xmlns="http://www.w3.org/2000/svg">
<mask id="mask0" mask-type="alpha" maskUnits="userSpaceOnUse" x="0" y="0" width="1440" height="145">
<rect width="1440" height="145" fill="#C4C4C4"/>
</mask>
<g mask="url(#mask0)">
<g opacity="0.3">
<rect opacity="0.5" x="-203.611" y="190.405" width="173.524" height="160.176" rx="8" transform="rotate(-47.7231 -203.611 190.405)" fill="#B153F9"/>
<rect opacity="0.6" x="-153.582" y="189.845" width="173.524" height="160.176" rx="8" transform="rotate(-47.7231 -153.582 189.845)" fill="#B153F9"/>
<rect opacity="0.7" x="-102.38" y="188.978" width="173.524" height="160.176" rx="8" transform="rotate(-47.7231 -102.38 188.978)" fill="#B153F9"/>
</g>
<g opacity="0.3">
<rect opacity="0.5" x="-101.867" y="189.558" width="173.524" height="160.176" rx="8" transform="rotate(-47.7231 -101.867 189.558)" fill="#FF9900"/>
<rect opacity="0.6" x="-51.8378" y="188.998" width="173.524" height="160.176" rx="8" transform="rotate(-47.7231 -51.8378 188.998)" fill="#FF9900"/>
<rect opacity="0.7" x="-0.63501" y="188.131" width="173.524" height="160.176" rx="8" transform="rotate(-47.7231 -0.63501 188.131)" fill="#FF9900"/>
</g>
<g opacity="0.3">
<rect opacity="0.5" x="21.3887" y="183.405" width="173.524" height="160.176" rx="8" transform="rotate(-47.7231 21.3887 183.405)" fill="#B153F9"/>
<rect opacity="0.6" x="71.4175" y="182.845" width="173.524" height="160.176" rx="8" transform="rotate(-47.7231 71.4175 182.845)" fill="#B153F9"/>
<rect opacity="0.7" x="122.62" y="181.978" width="173.524" height="160.176" rx="8" transform="rotate(-47.7231 122.62 181.978)" fill="#B153F9"/>
</g>
<g opacity="0.3">
<rect opacity="0.5" x="123.133" y="182.558" width="173.524" height="160.176" rx="8" transform="rotate(-47.7231 123.133 182.558)" fill="#FF9900"/>
<rect opacity="0.6" x="173.162" y="181.998" width="173.524" height="160.176" rx="8" transform="rotate(-47.7231 173.162 181.998)" fill="#FF9900"/>
<rect opacity="0.7" x="224.365" y="181.131" width="173.524" height="160.176" rx="8" transform="rotate(-47.7231 224.365 181.131)" fill="#FF9900"/>
</g>
<g opacity="0.3">
<rect opacity="0.5" x="938.389" y="-13.5954" width="173.524" height="160.176" rx="8" transform="rotate(-47.7231 938.389 -13.5954)" fill="#B153F9"/>
<rect opacity="0.6" x="988.418" y="-14.155" width="173.524" height="160.176" rx="8" transform="rotate(-47.7231 988.418 -14.155)" fill="#B153F9"/>
<rect opacity="0.7" x="1039.62" y="-15.0222" width="173.524" height="160.176" rx="8" transform="rotate(-47.7231 1039.62 -15.0222)" fill="#B153F9"/>
</g>
<g opacity="0.3">
<rect opacity="0.5" x="1040.13" y="-14.4421" width="173.524" height="160.176" rx="8" transform="rotate(-47.7231 1040.13 -14.4421)" fill="#FF9900"/>
<rect opacity="0.6" x="1090.16" y="-15.0017" width="173.524" height="160.176" rx="8" transform="rotate(-47.7231 1090.16 -15.0017)" fill="#FF9900"/>
<rect opacity="0.7" x="1141.36" y="-15.8689" width="173.524" height="160.176" rx="8" transform="rotate(-47.7231 1141.36 -15.8689)" fill="#FF9900"/>
</g>
<g opacity="0.3">
<rect opacity="0.5" x="1163.39" y="-20.5954" width="173.524" height="160.176" rx="8" transform="rotate(-47.7231 1163.39 -20.5954)" fill="#B153F9"/>
<rect opacity="0.6" x="1213.42" y="-21.155" width="173.524" height="160.176" rx="8" transform="rotate(-47.7231 1213.42 -21.155)" fill="#B153F9"/>
<rect opacity="0.7" x="1264.62" y="-22.0222" width="173.524" height="160.176" rx="8" transform="rotate(-47.7231 1264.62 -22.0222)" fill="#B153F9"/>
</g>
<g opacity="0.3">
<rect opacity="0.5" x="1265.13" y="-21.4421" width="173.524" height="160.176" rx="8" transform="rotate(-47.7231 1265.13 -21.4421)" fill="#FF9900"/>
<rect opacity="0.6" x="1315.16" y="-22.0017" width="173.524" height="160.176" rx="8" transform="rotate(-47.7231 1315.16 -22.0017)" fill="#FF9900"/>
<rect opacity="0.7" x="1366.36" y="-22.8689" width="173.524" height="160.176" rx="8" transform="rotate(-47.7231 1366.36 -22.8689)" fill="#FF9900"/>
</g>
</g>
</svg>
